<svg aria-hidden="true" style="position:absolute;width:0;height:0;overflow:hidden" xmlns="http://www.w3.org/2000/svg">
<defs>
<symbol id="icon-whatsapp" viewBox="0 0 32 32"><path  d="M15.067 2.698c-1.328.132-2.207.306-3.2.633C7.586 4.773 4.34 8.233 3.225 12.55l-.02.092c-.25 1.004-.329 1.624-.362 2.825-.033 1.233.046 2.13.28 3.193.296 1.34.901 2.826 1.653 4.06l.351.576-.651 2.38c-.358 1.309-.637 2.394-.62 2.411s1.128-.257 2.469-.609l2.438-.64.63.361c1.492.855 3.16 1.415 4.954 1.661.654.09 2.545.091 3.2.001 3.074-.423 5.768-1.775 7.843-3.938 2.292-2.39 3.561-5.39 3.661-8.658.071-2.314-.353-4.29-1.351-6.291-.679-1.363-1.291-2.224-2.364-3.327-2.07-2.126-4.619-3.419-7.586-3.848-.539-.078-2.263-.143-2.683-.101zm-3.488 5.956c.105.071.252.256.351.442.218.411 1.403 3.304 1.403 3.426 0 .281-.43.943-1.081 1.662-.245.27-.262.306-.238.514.048.429.968 1.704 1.903 2.638.971.97 1.819 1.555 3.105 2.142.699.32.947.37 1.146.23.061-.043.379-.409.706-.813 1-1.236.911-1.148 1.162-1.145.122.002.398.077.613.166.665.278 3.16 1.528 3.238 1.622.173.21.01 1.445-.27 2.046-.304.653-1.422 1.45-2.39 1.703-.52.136-1.484.122-2.16-.031-.613-.139-1.831-.533-2.628-.851-2.653-1.058-4.806-2.946-6.977-6.118-.917-1.339-1.394-2.464-1.525-3.594-.15-1.303.34-2.667 1.299-3.611.507-.499.627-.544 1.463-.547.64-.001.714.009.88.119z"/></symbol>
<symbol id="icon-github" viewBox="0 0 33 32"><path d="M16.76 0c-8.84 0-16 7.16-16 16 0 7.08 4.58 13.06 10.94 15.18.8.14 1.1-.34 1.1-.76 0-.38-.02-1.64-.02-2.98-4.02.74-5.06-.98-5.38-1.88-.18-.46-.96-1.88-1.64-2.26-.56-.3-1.36-1.04-.02-1.06C7 22.22 7.9 23.4 8.2 23.88c1.44 2.42 3.74 1.74 4.66 1.32.14-1.04.56-1.74 1.02-2.14-3.56-.4-7.28-1.78-7.28-7.9 0-1.74.62-3.18 1.64-4.3-.16-.4-.72-2.04.16-4.24 0 0 1.34-.42 4.4 1.64 1.28-.36 2.64-.54 4-.54s2.72.18 4 .54c3.06-2.08 4.4-1.64 4.4-1.64.88 2.2.32 3.84.16 4.24 1.02 1.12 1.64 2.54 1.64 4.3 0 6.14-3.74 7.5-7.3 7.9.58.5 1.08 1.46 1.08 2.96 0 2.14-.02 3.86-.02 4.4 0 .42.3.92 1.1.76a16.032 16.032 0 0 0 10.9-15.181c0-8.84-7.16-16-16-16z"/></symbol>
<symbol id="icon-telegram" viewBox="0 0 32 32"><path  d="M16 0A16.003 16.003 0 0 0-.001 16 16.006 16.006 0 0 0 16 32a16.001 16.001 0 0 0 0-32z"/><path fill="#fff" style="fill:var(--color2, #fff)" d="M7.242 15.831c4.665-2.032 7.775-3.372 9.33-4.019 4.445-1.848 5.367-2.169 5.97-2.18.133-.002.427.031.62.186.16.131.205.309.227.433.02.124.047.408.025.63-.24 2.53-1.282 8.669-1.813 11.503-.223 1.199-.665 1.601-1.093 1.64-.93.085-1.635-.614-2.535-1.204-1.407-.923-2.203-1.498-3.57-2.398-1.58-1.041-.555-1.613.345-2.548.235-.245 4.33-3.969 4.408-4.306.01-.042.02-.2-.075-.283-.093-.083-.23-.055-.33-.032-.142.032-2.39 1.519-6.75 4.461-.637.439-1.215.652-1.735.641-.57-.012-1.67-.323-2.487-.588-1-.326-1.798-.498-1.728-1.051.035-.288.433-.583 1.19-.884z"/></symbol>
<symbol id="icon-linkedin" viewBox="0 0 32 32"><path d="M16 .64C7.517.64.64 7.517.64 16S7.517 31.36 16 31.36 31.36 24.483 31.36 16 24.483.64 16 .64zm-3.76 21.726H9.13v-10.01h3.11v10.01zm-1.574-11.238c-.982 0-1.618-.696-1.618-1.557 0-.878.654-1.554 1.658-1.554s1.618.675 1.637 1.554c0 .861-.634 1.557-1.677 1.557zM23.6 22.366h-3.11v-5.547c0-1.291-.451-2.168-1.576-2.168-.859 0-1.37.594-1.595 1.165-.083.203-.104.491-.104.778v5.771h-3.112v-6.816c0-1.25-.04-2.294-.082-3.194h2.702l.142 1.39h.062c.41-.653 1.413-1.616 3.091-1.616 2.046 0 3.581 1.371 3.581 4.318v5.918z"/></symbol>
<symbol id="icon-facebook" viewBox="0 0 32 32"><path  d="M32 16c0-8.836-7.163-16-16-16S0 7.163 0 16c0 7.986 5.851 14.605 13.5 15.806V20.625H9.437V16H13.5v-3.525c0-4.01 2.389-6.225 6.043-6.225 1.751 0 3.582.313 3.582.313v3.938h-2.017c-1.988 0-2.608 1.233-2.608 2.499v3.001h4.438l-.709 4.625h-3.728v11.181c7.649-1.2 13.5-7.819 13.5-15.806z"/><path fill="#fff" style="fill:var(--color2, #fff)" d="M22.228 20.625 22.937 16h-4.438v-3.001c0-1.265.62-2.499 2.608-2.499h2.017V6.562s-1.831-.313-3.582-.313c-3.655 0-6.043 2.215-6.043 6.225v3.525H9.436v4.625h4.063v11.181c.827.13 1.663.195 2.5.194s1.673-.065 2.5-.194V20.624h3.728z"/></symbol>
</defs></svg>


